PathFileType	3	(X/Y/Z)	walking_3__fused_aligned.trc
DataRate	CameraRate	NumFrames	NumMarkers	Units	OrigDataRate	OrigDataStartFrame	OrigNumFrames
100.0	100.0	9	19	mm	100.0	4997	6307
Frame#	Time	pelvis			neck			head			hip_left			hip_right			knee_left			knee_right			ankle_left			ankle_right			heel_left			heel_right			toe_left			toe_right			shoulder_left			shoulder_right			elbow_left			elbow_right			wrist_left			wrist_right			
		X1	Y1	Z1	X2	Y2	Z2	X3	Y3	Z3	X4	Y4	Z4	X5	Y5	Z5	X6	Y6	Z6	X7	Y7	Z7	X8	Y8	Z8	X9	Y9	Z9	X10	Y10	Z10	X11	Y11	Z11	X12	Y12	Z12	X13	Y13	Z13	X14	Y14	Z14	X15	Y15	Z15	X16	Y16	Z16	X17	Y17	Z17	X18	Y18	Z18	X19	Y19	Z19	
4997	49.96000	-0.746147	936.822797	169.186355	-21.412134	1492.136457	274.680814	-17.815365	1565.683952	430.177799	77.979740	935.158222	167.911936	-79.472202	938.487337	170.460956	118.519394	534.121265	345.658698	-103.041818	509.548219	246.435787	108.320346	222.109249	157.020421	-103.708435	95.683007	153.594274	103.884749	199.978935	112.787477	-103.514756	44.569493	115.726991	92.234306	96.491186	260.854897	-104.678065	37.616932	350.461619	156.588122	1461.155940	219.485566	-196.556418	1427.207770	245.659202	240.538411	1182.832246	154.521440	-245.995639	1140.668788	233.994091	288.189113	931.877172	217.924160	-245.397477	914.138071	322.104557
4998	49.97000	0.839575	936.569195	170.030883	-19.523075	1492.241759	274.341458	-15.522855	1565.975066	429.817720	79.548324	934.982366	168.991082	-77.869318	938.155986	171.070866	119.640647	535.182637	353.564253	-102.980256	507.838658	239.696723	110.500479	218.801430	174.793416	-104.395476	97.262579	138.882024	106.350711	195.315387	131.484595	-104.060206	47.216955	100.365946	93.695169	97.749348	282.174470	-106.203385	36.290062	332.703538	158.324629	1460.939099	217.916209	-195.201365	1427.357641	246.999372	241.161899	1182.661379	150.159719	-245.045580	1140.647673	239.886983	289.981830	930.237046	207.430997	-241.167959	916.643975	334.780120
4999	49.98000	2.425298	936.315593	170.875411	-17.634015	1492.347061	274.002102	-13.230344	1566.266179	429.457642	81.116908	934.806510	170.070228	-76.266434	937.824636	171.680776	120.761900	536.244010	361.469808	-102.918694	506.129097	232.957660	112.680611	215.493610	192.566412	-105.082518	98.842150	124.169774	108.816672	190.651840	150.181713	-104.605657	49.864417	85.004901	95.156033	99.007511	303.494043	-107.728704	34.963192	314.945457	160.061136	1460.722257	216.346852	-193.846312	1427.507511	248.339543	241.785388	1182.490511	145.797997	-244.095521	1140.626558	245.779875	291.774548	928.596920	196.937834	-236.938441	919.149878	347.455683
5000	49.99000	4.011021	936.061991	171.719938	-15.744955	1492.452363	273.662746	-10.937834	1566.557293	429.097563	82.685492	934.630654	171.149374	-74.663551	937.493285	172.290686	121.883153	537.305382	369.375363	-102.857132	504.419536	226.218596	114.860744	212.185791	210.339407	-105.769559	100.421721	109.457524	111.282633	185.988292	168.878830	-105.151107	52.511879	69.643857	96.616896	100.265673	324.813616	-109.254024	33.636321	297.187376	161.797643	1460.505416	214.777495	-192.491259	1427.657382	249.679713	242.408876	1182.319644	141.436276	-243.145463	1140.605442	251.672767	293.567265	926.956794	186.444670	-232.708923	921.655782	360.131246
5001	50.00000	5.596743	935.808389	172.564466	-13.855896	1492.557665	273.323390	-8.645323	1566.848407	428.737484	84.254076	934.454797	172.228519	-73.060667	937.161935	172.900596	123.004406	538.366755	377.280918	-102.795570	502.709975	219.479532	117.040876	208.877972	228.112403	-106.456600	102.001293	94.745274	113.748595	181.324744	187.575948	-105.696558	55.159341	54.282812	98.077759	101.523835	346.133188	-110.779344	32.309451	279.429294	163.534150	1460.288574	213.208138	-191.136206	1427.807252	251.019884	243.032365	1182.148777	137.074555	-242.195404	1140.584327	257.565659	295.359983	925.316668	175.951507	-228.479405	924.161685	372.806808
5002	50.01000	7.182466	935.554787	173.408993	-11.966836	1492.662967	272.984033	-6.352812	1567.139520	428.377405	85.822661	934.278941	173.307665	-71.457783	936.830585	173.510506	124.125660	539.428127	385.186473	-102.734009	501.000413	212.740468	119.221008	205.570153	245.885398	-107.143642	103.580864	80.033023	116.214556	176.661197	206.273065	-106.242008	57.806803	38.921767	99.538622	102.781997	367.452761	-112.304663	30.982581	261.671213	165.270657	1460.071732	211.638780	-189.781153	1427.957122	252.360055	243.655853	1181.977910	132.712834	-241.245345	1140.563212	263.458551	297.152700	923.676542	165.458344	-224.249887	926.667589	385.482371
5003	50.02000	8.768189	935.301185	174.253521	-10.077776	1492.768270	272.644677	-4.060302	1567.430634	428.017327	87.391245	934.103085	174.386811	-69.854899	936.499234	174.120416	125.246913	540.489500	393.092028	-102.672447	499.290852	206.001405	121.401141	202.262333	263.658394	-107.830683	105.160435	65.320773	118.680517	171.997649	224.970183	-106.787459	60.454265	23.560722	100.999486	104.040159	388.772334	-113.829983	29.655710	243.913132	167.007164	1459.854891	210.069423	-188.426100	1428.106993	253.700225	244.279342	1181.807043	128.351113	-240.295286	1140.542097	269.351443	298.945418	922.036416	154.965181	-220.020370	929.173492	398.157934
5004	50.03000	10.353911	935.047583	175.098049	-8.188716	1492.873572	272.305321	-1.767791	1567.721747	427.657248	88.959829	933.927229	175.465957	-68.252016	936.167884	174.730326	126.368166	541.550872	400.997583	-102.610885	497.581291	199.262341	123.581273	198.954514	281.431389	-108.517724	106.740007	50.608523	121.146479	167.334101	243.667300	-107.332909	63.101727	8.199677	102.460349	105.298321	410.091907	-115.355302	28.328840	226.155051	168.743671	1459.638049	208.500066	-187.071047	1428.256863	255.040396	244.902830	1181.636176	123.989392	-239.345227	1140.520981	275.244335	300.738135	920.396290	144.472018	-215.790852	931.679396	410.833497
5005	50.04000	11.939634	934.793981	175.942576	-6.299657	1492.978874	271.965965	0.524719	1568.012861	427.297169	90.528413	933.751373	176.545103	-66.649132	935.836534	175.340236	127.489419	542.612245	408.903138	-102.549323	495.871730	192.523277	125.761405	195.646695	299.204385	-109.204766	108.319578	35.896273	123.612440	162.670554	262.364418	-107.878359	65.749189	-7.161368	103.921212	106.556483	431.411480	-116.880622	27.001970	208.396970	170.480177	1459.421208	206.930709	-185.715993	1428.406734	256.380566	245.526319	1181.465308	119.627671	-238.395168	1140.499866	281.137227	302.530853	918.756164	133.978854	-211.561334	934.185299	423.509060
